<svg id="visual" viewBox="0 0 4000 2000" width="4000" height="2000" xmlns="http://www.w3.org/2000/svg" xmlns:xlink="http://www.w3.org/1999/xlink" version="1.1"><g stroke-width="1" stroke-linejoin="bevel"><path d="M2178.2 861L1806.8 847L1781.8 1199Z" fill="#a158f3" stroke="#a158f3"></path><path d="M1781.8 1199L2128.2 1298L2178.2 861Z" fill="#7f42ea" stroke="#7f42ea"></path><path d="M1781.8 1199L1768.8 1559L2128.2 1298Z" fill="#8b49ed" stroke="#8b49ed"></path><path d="M1768.8 1559L2252.2 1613L2128.2 1298Z" fill="#a65cf5" stroke="#a65cf5"></path><path d="M2757.7 1297L2671.7 703L2178.2 861Z" fill="#793ee9" stroke="#793ee9"></path><path d="M2150.2 390L1715.8 447L1806.8 847Z" fill="#7f42ea" stroke="#7f42ea"></path><path d="M1806.8 847L1305.3 1123L1781.8 1199Z" fill="#7f42ea" stroke="#7f42ea"></path><path d="M1781.8 1199L1368.3 1505L1768.8 1559Z" fill="#914def" stroke="#914def"></path><path d="M2671.7 703L2150.2 390L2178.2 861Z" fill="#733be7" stroke="#733be7"></path><path d="M2178.2 861L2150.2 390L1806.8 847Z" fill="#6c37e6" stroke="#6c37e6"></path><path d="M1715.8 447L1336.3 825L1806.8 847Z" fill="#a158f3" stroke="#a158f3"></path><path d="M1336.3 825L1305.3 1123L1806.8 847Z" fill="#914def" stroke="#914def"></path><path d="M2757.7 1297L2178.2 861L2128.2 1298Z" fill="#733be7" stroke="#733be7"></path><path d="M1305.3 1123L1368.3 1505L1781.8 1199Z" fill="#733be7" stroke="#733be7"></path><path d="M2252.2 1613L2757.7 1297L2128.2 1298Z" fill="#a65cf5" stroke="#a65cf5"></path><path d="M3014.1 889L2693.7 485L2671.7 703Z" fill="#8545ec" stroke="#8545ec"></path><path d="M2671.7 703L2693.7 485L2150.2 390Z" fill="#6c37e6" stroke="#6c37e6"></path><path d="M2252.2 1613L2705.7 1639L2757.7 1297Z" fill="#914def" stroke="#914def"></path><path d="M1382.3 2000L1751.8 2000L1768.8 1559Z" fill="#733be7" stroke="#733be7"></path><path d="M1768.8 1559L1751.8 2000L2252.2 1613Z" fill="#9c54f2" stroke="#9c54f2"></path><path d="M2252.2 1613L2304.2 2000L2705.7 1639Z" fill="#9c54f2" stroke="#9c54f2"></path><path d="M1751.8 2000L2304.2 2000L2252.2 1613Z" fill="#793ee9" stroke="#793ee9"></path><path d="M1715.8 447L1233.3 338L1336.3 825Z" fill="#7f42ea" stroke="#7f42ea"></path><path d="M1336.3 825L869.9 887L1305.3 1123Z" fill="#7f42ea" stroke="#7f42ea"></path><path d="M1762.8 0L1233.3 338L1715.8 447Z" fill="#793ee9" stroke="#793ee9"></path><path d="M2757.7 1297L3014.1 889L2671.7 703Z" fill="#9c54f2" stroke="#9c54f2"></path><path d="M3063.1 1273L3014.1 889L2757.7 1297Z" fill="#8b49ed" stroke="#8b49ed"></path><path d="M2245.2 0L1762.8 0L2150.2 390Z" fill="#6c37e6" stroke="#6c37e6"></path><path d="M2150.2 390L1762.8 0L1715.8 447Z" fill="#9c54f2" stroke="#9c54f2"></path><path d="M2634.7 0L2245.2 0L2150.2 390Z" fill="#914def" stroke="#914def"></path><path d="M2705.7 1639L3063.1 1273L2757.7 1297Z" fill="#9c54f2" stroke="#9c54f2"></path><path d="M941.9 382L869.9 887L1336.3 825Z" fill="#6c37e6" stroke="#6c37e6"></path><path d="M1305.3 1123L957.9 1602L1368.3 1505Z" fill="#9c54f2" stroke="#9c54f2"></path><path d="M1368.3 1505L1382.3 2000L1768.8 1559Z" fill="#a65cf5" stroke="#a65cf5"></path><path d="M957.9 1602L1382.3 2000L1368.3 1505Z" fill="#9651f0" stroke="#9651f0"></path><path d="M869.9 887L846.9 1221L1305.3 1123Z" fill="#9c54f2" stroke="#9c54f2"></path><path d="M846.9 1221L957.9 1602L1305.3 1123Z" fill="#a158f3" stroke="#a158f3"></path><path d="M2304.2 2000L2724.7 2000L2705.7 1639Z" fill="#a158f3" stroke="#a158f3"></path><path d="M2705.7 1639L3110.1 1695L3063.1 1273Z" fill="#733be7" stroke="#733be7"></path><path d="M2693.7 485L2634.7 0L2150.2 390Z" fill="#7f42ea" stroke="#7f42ea"></path><path d="M3023.1 0L2634.7 0L2693.7 485Z" fill="#6c37e6" stroke="#6c37e6"></path><path d="M1233.3 338L941.9 382L1336.3 825Z" fill="#6c37e6" stroke="#6c37e6"></path><path d="M907.9 0L941.9 382L1233.3 338Z" fill="#9c54f2" stroke="#9c54f2"></path><path d="M1762.8 0L1252.3 0L1233.3 338Z" fill="#793ee9" stroke="#793ee9"></path><path d="M3023.1 2000L3110.1 1695L2705.7 1639Z" fill="#733be7" stroke="#733be7"></path><path d="M3488.6 478L3174.1 379L3014.1 889Z" fill="#914def" stroke="#914def"></path><path d="M3014.1 889L3174.1 379L2693.7 485Z" fill="#6c37e6" stroke="#6c37e6"></path><path d="M3498.6 888L3014.1 889L3063.1 1273Z" fill="#a65cf5" stroke="#a65cf5"></path><path d="M2724.7 2000L3023.1 2000L2705.7 1639Z" fill="#9c54f2" stroke="#9c54f2"></path><path d="M3174.1 379L3023.1 0L2693.7 485Z" fill="#793ee9" stroke="#793ee9"></path><path d="M1252.3 0L907.9 0L1233.3 338Z" fill="#9651f0" stroke="#9651f0"></path><path d="M406.4 1115L846.9 1221L869.9 887Z" fill="#8b49ed" stroke="#8b49ed"></path><path d="M406.4 1115L507.4 1553L846.9 1221Z" fill="#793ee9" stroke="#793ee9"></path><path d="M3508.6 1541L3063.1 1273L3110.1 1695Z" fill="#914def" stroke="#914def"></path><path d="M3508.6 1541L3480.6 1283L3063.1 1273Z" fill="#a158f3" stroke="#a158f3"></path><path d="M3480.6 1283L3498.6 888L3063.1 1273Z" fill="#9651f0" stroke="#9651f0"></path><path d="M3174.1 379L3619.6 0L3023.1 0Z" fill="#733be7" stroke="#733be7"></path><path d="M507.4 1553L957.9 1602L846.9 1221Z" fill="#914def" stroke="#914def"></path><path d="M507.4 1553L806.9 2000L957.9 1602Z" fill="#a65cf5" stroke="#a65cf5"></path><path d="M957.9 1602L806.9 2000L1382.3 2000Z" fill="#793ee9" stroke="#793ee9"></path><path d="M406.4 1115L869.9 887L415.4 802Z" fill="#8b49ed" stroke="#8b49ed"></path><path d="M415.4 802L869.9 887L941.9 382Z" fill="#a65cf5" stroke="#a65cf5"></path><path d="M497.4 311L415.4 802L941.9 382Z" fill="#8b49ed" stroke="#8b49ed"></path><path d="M3498.6 888L3488.6 478L3014.1 889Z" fill="#a158f3" stroke="#a158f3"></path><path d="M3493.6 2000L3508.6 1541L3110.1 1695Z" fill="#7f42ea" stroke="#7f42ea"></path><path d="M3480.6 1283L4000 1190L3498.6 888Z" fill="#9c54f2" stroke="#9c54f2"></path><path d="M907.9 0L497.4 311L941.9 382Z" fill="#8b49ed" stroke="#8b49ed"></path><path d="M3023.1 2000L3493.6 2000L3110.1 1695Z" fill="#9651f0" stroke="#9651f0"></path><path d="M907.9 0L513.4 0L497.4 311Z" fill="#6c37e6" stroke="#6c37e6"></path><path d="M0 720L406.4 1115L415.4 802Z" fill="#a158f3" stroke="#a158f3"></path><path d="M0 1642L464.4 2000L507.4 1553Z" fill="#a158f3" stroke="#a158f3"></path><path d="M507.4 1553L464.4 2000L806.9 2000Z" fill="#6c37e6" stroke="#6c37e6"></path><path d="M4000 880L3488.6 478L3498.6 888Z" fill="#a65cf5" stroke="#a65cf5"></path><path d="M4000 364L3619.6 0L3488.6 478Z" fill="#914def" stroke="#914def"></path><path d="M3488.6 478L3619.6 0L3174.1 379Z" fill="#a158f3" stroke="#a158f3"></path><path d="M4000 1190L3480.6 1283L4000 1508Z" fill="#a158f3" stroke="#a158f3"></path><path d="M0 720L0 1288L406.4 1115Z" fill="#7f42ea" stroke="#7f42ea"></path><path d="M406.4 1115L0 1288L507.4 1553Z" fill="#733be7" stroke="#733be7"></path><path d="M0 720L415.4 802L0 397Z" fill="#733be7" stroke="#733be7"></path><path d="M0 397L415.4 802L497.4 311Z" fill="#793ee9" stroke="#793ee9"></path><path d="M4000 1508L3480.6 1283L3508.6 1541Z" fill="#9c54f2" stroke="#9c54f2"></path><path d="M4000 1190L4000 880L3498.6 888Z" fill="#9c54f2" stroke="#9c54f2"></path><path d="M4000 2000L4000 1508L3508.6 1541Z" fill="#8545ec" stroke="#8545ec"></path><path d="M0 1288L0 1642L507.4 1553Z" fill="#914def" stroke="#914def"></path><path d="M0 0L0 397L497.4 311Z" fill="#7f42ea" stroke="#7f42ea"></path><path d="M4000 880L4000 364L3488.6 478Z" fill="#6c37e6" stroke="#6c37e6"></path><path d="M0 1642L0 2000L464.4 2000Z" fill="#9651f0" stroke="#9651f0"></path><path d="M3493.6 2000L4000 2000L3508.6 1541Z" fill="#7f42ea" stroke="#7f42ea"></path><path d="M513.4 0L0 0L497.4 311Z" fill="#7f42ea" stroke="#7f42ea"></path><path d="M4000 364L4000 0L3619.6 0Z" fill="#793ee9" stroke="#793ee9"></path></g></svg>