<svg id="visual" viewBox="0 0 900 600" width="900" height="600" xmlns="http://www.w3.org/2000/svg" xmlns:xlink="http://www.w3.org/1999/xlink" version="1.1"><path d="M0 175L82 175L82 211L164 211L164 199L245 199L245 127L327 127L327 187L409 187L409 151L491 151L491 229L573 229L573 175L655 175L655 151L736 151L736 235L818 235L818 169L900 169L900 133L900 0L900 0L818 0L818 0L736 0L736 0L655 0L655 0L573 0L573 0L491 0L491 0L409 0L409 0L327 0L327 0L245 0L245 0L164 0L164 0L82 0L82 0L0 0Z" fill="#ffffff"></path><path d="M0 235L82 235L82 277L164 277L164 277L245 277L245 229L327 229L327 265L409 265L409 199L491 199L491 307L573 307L573 247L655 247L655 223L736 223L736 331L818 331L818 241L900 241L900 175L900 131L900 167L818 167L818 233L736 233L736 149L655 149L655 173L573 173L573 227L491 227L491 149L409 149L409 185L327 185L327 125L245 125L245 197L164 197L164 209L82 209L82 173L0 173Z" fill="#f1eafc"></path><path d="M0 373L82 373L82 415L164 415L164 409L245 409L245 349L327 349L327 415L409 415L409 265L491 265L491 427L573 427L573 319L655 319L655 379L736 379L736 457L818 457L818 385L900 385L900 337L900 173L900 239L818 239L818 329L736 329L736 221L655 221L655 245L573 245L573 305L491 305L491 197L409 197L409 263L327 263L327 227L245 227L245 275L164 275L164 275L82 275L82 233L0 233Z" fill="#e2d6f9"></path><path d="M0 481L82 481L82 469L164 469L164 493L245 493L245 385L327 385L327 493L409 493L409 391L491 391L491 475L573 475L573 391L655 391L655 457L736 457L736 505L818 505L818 475L900 475L900 439L900 335L900 383L818 383L818 455L736 455L736 377L655 377L655 317L573 317L573 425L491 425L491 263L409 263L409 413L327 413L327 347L245 347L245 407L164 407L164 413L82 413L82 371L0 371Z" fill="#d3c2f6"></path><path d="M0 601L82 601L82 601L164 601L164 601L245 601L245 601L327 601L327 601L409 601L409 601L491 601L491 601L573 601L573 601L655 601L655 601L736 601L736 601L818 601L818 601L900 601L900 601L900 437L900 473L818 473L818 503L736 503L736 455L655 455L655 389L573 389L573 473L491 473L491 389L409 389L409 491L327 491L327 383L245 383L245 491L164 491L164 467L82 467L82 479L0 479Z" fill="#c4aff3"></path></svg>